<svg width="20" height="17" viewBox="0 0 20 17" fill="none" xmlns="http://www.w3.org/2000/svg">
    <path
        d="M11.1849 1.20005C11.1849 0.642387 10.6486 0.190308 9.98702 0.190308C9.32543 0.190308 8.7891 0.642386 8.7891 1.20005V7.25853H1.6016C0.940012 7.25853 0.403687 7.71061 0.403687 8.26828C0.403687 8.82595 0.940012 9.27803 1.6016 9.27803H8.7891V15.3365C8.7891 15.8942 9.32543 16.3463 9.98702 16.3463C10.6486 16.3463 11.1849 15.8942 11.1849 15.3365V9.27803H18.3724C19.034 9.27803 19.5704 8.82595 19.5704 8.26828C19.5704 7.71061 19.034 7.25853 18.3724 7.25853H11.1849V1.20005Z"
        fill="white" />
</svg>