<svg width="37" height="35" viewBox="0 0 37 35" fill="none" xmlns="http://www.w3.org/2000/svg">
    <path
        d="M23.6041 28.5693C23.9301 27.9948 23.4537 27.3595 22.7932 27.3595H13.8692C13.2087 27.3595 12.7323 27.9948 13.0583 28.5693C14.0588 30.3321 16.0447 31.5331 18.3312 31.5331C20.6177 31.5331 22.6035 30.3321 23.6041 28.5693Z"
        fill="#B6B6B6" />
    <path
        d="M30.8753 22.1689H4.92567C3.86215 22.1689 3 21.3068 3 20.2432C3 19.6978 3.23127 19.178 3.63638 18.8129L5.4228 17.2027C5.84537 16.8218 6.08573 16.2789 6.08374 15.7101L6.06134 9.32888C6.0458 4.89967 9.63205 1.30081 14.0613 1.30081H21.8333C26.2516 1.30081 29.8333 4.88252 29.8333 9.3008L29.8333 15.7349C29.8333 16.2893 30.0635 16.8188 30.4688 17.1971L32.1986 18.8114C32.5916 19.1782 32.8148 19.6917 32.8148 20.2294C32.8148 21.3006 31.9465 22.1689 30.8753 22.1689Z"
        fill="#B6B6B6" />
</svg>