<svg width="32" height="8" viewBox="0 0 32 8" fill="none" xmlns="http://www.w3.org/2000/svg">
<path fill-rule="evenodd" clip-rule="evenodd" d="M3.93472 5.29C4.65354 5.29 5.23626 4.73731 5.23626 4.05553C5.23626 3.37375 4.65354 2.82106 3.93472 2.82106C3.21589 2.82106 2.63317 3.37375 2.63317 4.05553C2.63317 4.73731 3.21589 5.29 3.93472 5.29ZM3.93472 7.75895C6.09118 7.75895 7.83934 6.10087 7.83934 4.05553C7.83934 2.01019 6.09118 0.352112 3.93472 0.352112C1.77825 0.352112 0.0300903 2.01019 0.0300903 4.05553C0.0300903 6.10087 1.77825 7.75895 3.93472 7.75895Z" fill="#B6B6B6"/>
<path fill-rule="evenodd" clip-rule="evenodd" d="M15.6486 5.29C16.3674 5.29 16.9501 4.73731 16.9501 4.05553C16.9501 3.37375 16.3674 2.82106 15.6486 2.82106C14.9298 2.82106 14.347 3.37375 14.347 4.05553C14.347 4.73731 14.9298 5.29 15.6486 5.29ZM15.6486 7.75895C17.805 7.75895 19.5532 6.10087 19.5532 4.05553C19.5532 2.01019 17.805 0.352112 15.6486 0.352112C13.4921 0.352112 11.744 2.01019 11.744 4.05553C11.744 6.10087 13.4921 7.75895 15.6486 7.75895Z" fill="#B6B6B6"/>
<path fill-rule="evenodd" clip-rule="evenodd" d="M27.3623 5.29C28.0812 5.29 28.6639 4.73731 28.6639 4.05553C28.6639 3.37375 28.0812 2.82106 27.3623 2.82106C26.6435 2.82106 26.0608 3.37375 26.0608 4.05553C26.0608 4.73731 26.6435 5.29 27.3623 5.29ZM27.3623 7.75895C29.5188 7.75895 31.267 6.10087 31.267 4.05553C31.267 2.01019 29.5188 0.352112 27.3623 0.352112C25.2059 0.352112 23.4577 2.01019 23.4577 4.05553C23.4577 6.10087 25.2059 7.75895 27.3623 7.75895Z" fill="#B6B6B6"/>
</svg>
