<svg width="31" height="26" viewBox="0 0 31 26" fill="none" xmlns="http://www.w3.org/2000/svg">
    <path fill-rule="evenodd" clip-rule="evenodd"
        d="M2.55554 6.39117C2.55554 4.6263 4.27178 3.19559 6.38888 3.19559H24.2778C26.3949 3.19559 28.1111 4.6263 28.1111 6.39117V17.0431C28.1111 18.808 26.3949 20.2387 24.2778 20.2387H10.6848C10.3859 20.2387 10.0965 20.3261 9.86681 20.4856L6.74712 22.6528C5.08262 23.8091 2.55554 22.8224 2.55554 21.0162V6.39117ZM8.94443 9.58676C8.94443 8.99846 9.51651 8.52156 10.2222 8.52156H20.4444C21.1501 8.52156 21.7222 8.99846 21.7222 9.58676C21.7222 10.175 21.1501 10.652 20.4444 10.652H10.2222C9.51651 10.652 8.94443 10.175 8.94443 9.58676ZM10.2222 12.7823C9.51651 12.7823 8.94443 13.2592 8.94443 13.8475C8.94443 14.4358 9.51651 14.9127 10.2222 14.9127H15.3333C16.039 14.9127 16.6111 14.4358 16.6111 13.8475C16.6111 13.2592 16.039 12.7823 15.3333 12.7823H10.2222Z"
        fill="#B6B6B6" />
</svg>