<svg width="27" height="22" viewBox="0 0 27 22" fill="none" xmlns="http://www.w3.org/2000/svg">
<path fill-rule="evenodd" clip-rule="evenodd" d="M22.8438 10.6861C22.8438 14.85 18.502 18.2255 13.1461 18.2255C7.79026 18.2255 3.44849 14.85 3.44849 10.6861C3.44849 6.52214 7.79026 3.14662 13.1461 3.14662C18.502 3.14662 22.8438 6.52214 22.8438 10.6861ZM22.8879 16.7367C24.5942 15.0783 25.6145 12.9748 25.6145 10.6861C25.6145 5.33245 20.0322 0.992493 13.1461 0.992493C6.26002 0.992493 0.677734 5.33245 0.677734 10.6861C0.677734 16.0397 6.26002 20.3796 13.1461 20.3796C16.0901 20.3796 18.7957 19.5864 20.9287 18.2599L24.6349 21.1412C25.1759 21.5618 26.0531 21.5618 26.5941 21.1412C27.1351 20.7206 27.1351 20.0386 26.5941 19.618L22.8879 16.7367Z" fill="#B6B6B6"/>
</svg>
