<svg width="137" height="24" viewBox="0 0 137 24" fill="none" xmlns="http://www.w3.org/2000/svg">
<path d="M6.56 23C6.26133 23 6.02667 22.904 5.856 22.712C5.70667 22.52 5.632 22.2427 5.632 21.88C5.632 21.3467 5.824 20.952 6.208 20.696C6.592 20.4187 7.104 20.28 7.744 20.28H8.032V3.768H3.52L3.072 5.272C2.88 5.93333 2.67733 6.424 2.464 6.744C2.25067 7.04267 1.96267 7.192 1.6 7.192C1.344 7.192 1.13067 7.128 0.96 7C0.789333 6.85067 0.704 6.63733 0.704 6.36V0.759998H20.16V6.36C20.16 6.63733 20.0747 6.85067 19.904 7C19.7333 7.128 19.52 7.192 19.264 7.192C18.9013 7.192 18.6133 7.04267 18.4 6.744C18.1867 6.424 17.984 5.93333 17.792 5.272L17.344 3.768H12.832V20.312L14.048 20.92C14.5813 21.176 14.944 21.4107 15.136 21.624C15.3493 21.816 15.456 22.0613 15.456 22.36C15.456 22.5733 15.4133 22.7333 15.328 22.84C15.2427 22.9467 15.0827 23 14.848 23H6.56ZM51.627 23C51.3283 23 51.0937 22.904 50.923 22.712C50.7737 22.52 50.699 22.2427 50.699 21.88C50.699 21.3467 50.891 20.952 51.275 20.696C51.659 20.4187 52.171 20.28 52.811 20.28H53.099V3.48H51.627C51.3283 3.48 51.0937 3.384 50.923 3.192C50.7737 3 50.699 2.72267 50.699 2.36C50.699 1.82667 50.891 1.432 51.275 1.176C51.659 0.898665 52.171 0.759998 52.811 0.759998H59.915C60.1497 0.759998 60.3097 0.813332 60.395 0.919998C60.4803 1.02666 60.523 1.18667 60.523 1.4C60.523 1.69867 60.4163 1.95467 60.203 2.168C60.011 2.36 59.6483 2.584 59.115 2.84L57.899 3.448V20.312L59.115 20.92C59.6483 21.176 60.011 21.4107 60.203 21.624C60.4163 21.816 60.523 22.0613 60.523 22.36C60.523 22.5733 60.4803 22.7333 60.395 22.84C60.3097 22.9467 60.1497 23 59.915 23H51.627ZM66.4792 23C66.2659 23 66.0952 22.9253 65.9672 22.776C65.8392 22.6267 65.7752 22.392 65.7752 22.072C65.7752 21.624 65.9246 21.2827 66.2232 21.048C66.5219 20.792 67.0766 20.504 67.8872 20.184L68.3032 20.024V3.48H66.8312C66.5326 3.48 66.2979 3.384 66.1272 3.192C65.9779 3 65.9032 2.72267 65.9032 2.36C65.9032 1.82667 66.0952 1.432 66.4792 1.176C66.8632 0.898665 67.3752 0.759998 68.0152 0.759998H75.4392C75.6739 0.759998 75.8339 0.813332 75.9192 0.919998C76.0046 1.02666 76.0472 1.18667 76.0472 1.4C76.0472 1.72 75.9406 1.98667 75.7272 2.2C75.5139 2.41333 75.1512 2.62667 74.6392 2.84L73.1032 3.448V19.992H81.6472L82.3832 17.976C82.6819 17.144 82.9379 16.568 83.1512 16.248C83.3646 15.9067 83.6206 15.736 83.9192 15.736C84.1966 15.736 84.3886 15.8 84.4952 15.928C84.6019 16.056 84.6552 16.2373 84.6552 16.472V23H66.4792ZM116.116 23C115.818 23 115.583 22.904 115.412 22.712C115.263 22.52 115.188 22.2427 115.188 21.88C115.188 21.3467 115.38 20.952 115.764 20.696C116.148 20.4187 116.66 20.28 117.3 20.28H117.588V3.544L117.172 3.384C116.362 3.08533 115.807 2.82933 115.508 2.616C115.21 2.40267 115.06 2.09333 115.06 1.688C115.06 1.368 115.124 1.13333 115.252 0.983999C115.38 0.834665 115.551 0.759998 115.764 0.759998H126.26C128.735 0.759998 130.687 1.336 132.116 2.488C133.546 3.61867 134.26 5.21867 134.26 7.288C134.26 9.10133 133.706 10.552 132.596 11.64C131.508 12.7067 129.972 13.3573 127.988 13.592L133.78 20.408L135.316 20.952C135.85 21.1227 136.234 21.3147 136.468 21.528C136.703 21.7413 136.82 22.008 136.82 22.328C136.82 22.5413 136.778 22.712 136.692 22.84C136.607 22.9467 136.447 23 136.212 23H129.556L122.388 13.752V20.312L123.604 20.92C124.138 21.176 124.5 21.4107 124.692 21.624C124.906 21.816 125.012 22.0613 125.012 22.36C125.012 22.5733 124.97 22.7333 124.884 22.84C124.799 22.9467 124.639 23 124.404 23H116.116ZM125.812 11C126.964 11 127.86 10.68 128.5 10.04C129.14 9.37867 129.46 8.46133 129.46 7.288C129.46 6.11467 129.14 5.208 128.5 4.568C127.86 3.90667 126.964 3.576 125.812 3.576H122.388V11H125.812Z" fill="#F7C8E0"/>
<path d="M23.787 23C23.531 23 23.3283 22.9147 23.179 22.744C23.051 22.5733 22.987 22.3387 22.987 22.04C22.987 21.592 23.147 21.2613 23.467 21.048C23.787 20.8133 24.2137 20.696 24.747 20.696H25.291L32.715 0.759998H37.067L44.491 20.696L45.707 21.112C46.1337 21.2613 46.443 21.432 46.635 21.624C46.827 21.7947 46.923 22.0187 46.923 22.296C46.923 22.7653 46.763 23 46.443 23H38.443C37.931 23 37.675 22.68 37.675 22.04C37.675 21.592 37.835 21.2613 38.155 21.048C38.475 20.8133 38.9017 20.696 39.435 20.696H40.459L38.827 16.312H29.899L28.299 20.696L30.059 21.24C30.5497 21.3893 30.891 21.5493 31.083 21.72C31.275 21.8907 31.371 22.1147 31.371 22.392C31.371 22.7973 31.211 23 30.891 23H23.787ZM37.867 13.752L34.379 4.12L30.827 13.752H37.867ZM99.2323 23.48C97.1416 23.48 95.2643 23.0747 93.6003 22.264C91.9576 21.432 90.6456 20.152 89.6642 18.424C88.7042 16.6747 88.2242 14.4987 88.2242 11.896C88.2242 9.29333 88.7042 7.128 89.6642 5.4C90.6456 3.65067 91.9576 2.36 93.6003 1.528C95.2643 0.695999 97.1416 0.279999 99.2323 0.279999C101.323 0.279999 103.19 0.695999 104.832 1.528C106.496 2.36 107.808 3.65067 108.768 5.4C109.75 7.128 110.24 9.29333 110.24 11.896C110.24 14.4987 109.75 16.6747 108.768 18.424C107.808 20.152 106.496 21.432 104.832 22.264C103.19 23.0747 101.323 23.48 99.2323 23.48ZM99.2323 20.472C101.259 20.472 102.784 19.7467 103.808 18.296C104.854 16.824 105.376 14.6907 105.376 11.896C105.376 9.10133 104.854 6.968 103.808 5.496C102.784 4.024 101.259 3.288 99.2323 3.288C97.2056 3.288 95.6696 4.024 94.6242 5.496C93.6003 6.968 93.0883 9.10133 93.0883 11.896C93.0883 14.6907 93.6003 16.824 94.6242 18.296C95.6696 19.7467 97.2056 20.472 99.2323 20.472Z" fill="#FBFFB1"/>
</svg>
